<svg xmlns="http://www.w3.org/2000/svg" width="27.999" height="28.004" viewBox="0 0 27.999 28.004">
  <g id="instagram-sketched" transform="translate(-0.449)">
    <path id="Path_3" data-name="Path 3" d="M28.377,8.233a10.233,10.233,0,0,0-.651-3.4,7.174,7.174,0,0,0-4.1-4.1,10.259,10.259,0,0,0-3.4-.651C18.732.016,18.256,0,14.454,0S10.176.016,8.683.082a10.236,10.236,0,0,0-3.4.651A6.833,6.833,0,0,0,2.8,2.352,6.9,6.9,0,0,0,1.188,4.831a10.26,10.26,0,0,0-.651,3.4C.466,9.727.449,10.2.449,14s.016,4.278.082,5.772a10.232,10.232,0,0,0,.651,3.4,7.173,7.173,0,0,0,4.1,4.1,10.261,10.261,0,0,0,3.4.651c1.493.066,1.969.082,5.772.082s4.278-.016,5.772-.082a10.23,10.23,0,0,0,3.4-.651,7.163,7.163,0,0,0,4.1-4.1,10.267,10.267,0,0,0,.651-3.4c.066-1.494.082-1.969.082-5.772S28.443,9.727,28.377,8.233ZM25.855,19.667a7.676,7.676,0,0,1-.481,2.6,4.645,4.645,0,0,1-2.659,2.659,7.7,7.7,0,0,1-2.6.481c-1.477.066-1.92.082-5.657.082s-4.185-.016-5.657-.082a7.672,7.672,0,0,1-2.6-.481A4.309,4.309,0,0,1,4.6,23.88a4.354,4.354,0,0,1-1.045-1.608,7.7,7.7,0,0,1-.481-2.6C3,18.2,2.988,17.752,2.988,14.016S3,9.831,3.07,8.359a7.672,7.672,0,0,1,.481-2.6A4.256,4.256,0,0,1,4.6,4.152,4.347,4.347,0,0,1,6.21,3.107a7.708,7.708,0,0,1,2.6-.481c1.477-.066,1.92-.082,5.657-.082s4.185.016,5.657.082a7.676,7.676,0,0,1,2.6.481,4.306,4.306,0,0,1,1.608,1.045,4.353,4.353,0,0,1,1.045,1.609,7.707,7.707,0,0,1,.481,2.6c.066,1.477.082,1.92.082,5.657S25.921,18.19,25.855,19.667Zm0,0" transform="translate(0 0)" fill="#fff"/>
    <path id="Path_4" data-name="Path 4" d="M132.143,124.5a7.194,7.194,0,1,0,7.194,7.194A7.2,7.2,0,0,0,132.143,124.5Zm0,11.86a4.667,4.667,0,1,1,4.667-4.667A4.667,4.667,0,0,1,132.143,136.36Zm0,0" transform="translate(-117.689 -117.689)" fill="#fff"/>
    <path id="Path_5" data-name="Path 5" d="M365.808,90.281a1.68,1.68,0,1,1-1.68-1.679A1.68,1.68,0,0,1,365.808,90.281Zm0,0" transform="translate(-342.196 -83.754)" fill="#fff"/>
  </g>
</svg>
