<svg xmlns="http://www.w3.org/2000/svg" width="35.161" height="27.47" viewBox="0 0 35.161 27.47">
  <g id="no-sound" transform="translate(0 -56)">
    <path id="Path_1" data-name="Path 1" d="M7.683,76.327l8.9,6.8a1.648,1.648,0,0,0,1,.339h1.648a1.648,1.648,0,0,0,1.648-1.648V57.648A1.648,1.648,0,0,0,19.229,56H17.581a1.648,1.648,0,0,0-1,.339l-8.9,6.8H3.022A3.025,3.025,0,0,0,0,66.164v7.142a3.025,3.025,0,0,0,3.022,3.022Zm9.9-16.6V79.747L9.889,73.865V65.6ZM3.3,66.438h3.3v6.593H3.3Z" fill="#fff"/>
    <path id="Path_2" data-name="Path 2" d="M347.6,168.482a1.648,1.648,0,0,0-2.331,0l-3.23,3.23-3.23-3.23a1.648,1.648,0,1,0-2.331,2.331l3.23,3.23-3.23,3.23a1.648,1.648,0,0,0,2.331,2.331l3.23-3.23,3.23,3.23a1.648,1.648,0,1,0,2.331-2.331l-3.23-3.23,3.23-3.23A1.648,1.648,0,0,0,347.6,168.482Z" transform="translate(-312.926 -104.308)" fill="#fff"/>
  </g>
</svg>
